<svg xmlns="http://www.w3.org/2000/svg" viewBox="0 0 1540 1760">
  <style>
    @media (prefers-color-scheme: dark) {
      path {
        fill: url(#gradient-dark);
      }
    }
  </style>
  <linearGradient id="gradient" x1="0%" y1="0%" x2="100%" y2="100%" gradientUnits="userSpaceOnUse" gradientTransform="rotate(60)">
    <stop offset="0%" stop-color="#0077ff"/>
    <stop offset="100%" stop-color="#003DA5"/>
  </linearGradient>
  <linearGradient id="gradient-dark" x1="0%" y1="0%" x2="100%" y2="100%" gradientUnits="userSpaceOnUse" gradientTransform="rotate(60)">
    <stop offset="0%" stop-color="#33aaff"/>
    <stop offset="100%" stop-color="#0077ff"/>
  </linearGradient>
  <path fill="url(#gradient)" fill-rule="evenodd" d="M330 1320a110 110 0 1 0 0 220h880v-220Zm864-996c-133 10-244 188-352 168-108-3-186-142-359-140-138 66-178 115-233 168 158 35 359 82 399 197 33 99-97 211-173 284l90 74c193-91 381-191 398-361 57-175 196-249 326-365-33-20-65-27-96-25ZM330 0h1100c61 0 110 49 110 110v1100c0 61-49 110-110 110v220a110 110 0 1 1 0 220H330A330 330 0 0 1 0 1430V330C0 148 148 0 330 0Z"/>
</svg>